<?xml version="1.0" standalone="no"?><!DOCTYPE svg PUBLIC "-//W3C//DTD SVG 1.1//EN" "http://www.w3.org/Graphics/SVG/1.1/DTD/svg11.dtd"><svg t="1671773293705" class="icon" viewBox="0 0 1024 1024" version="1.1" xmlns="http://www.w3.org/2000/svg" p-id="16479" xmlns:xlink="http://www.w3.org/1999/xlink" width="128" height="128"><path d="M538.947368 450.021053c13.473684 0 26.947368-5.389474 37.726316-16.168421 10.778947-10.778947 16.168421-24.252632 16.168421-37.726316 0-13.473684-5.389474-26.947368-16.168421-37.726316-21.557895-21.557895-53.894737-21.557895-75.452631 0-21.557895 21.557895-21.557895 53.894737 0 75.452632 10.778947 10.778947 24.252632 16.168421 37.726315 16.168421z m-10.778947-64.673685c2.694737-2.694737 5.389474-5.389474 10.778947-5.389473 2.694737 0 8.084211 2.694737 10.778948 5.389473 2.694737 2.694737 5.389474 5.389474 5.389473 10.778948s-2.694737 8.084211-5.389473 10.778947c-5.389474 5.389474-16.168421 5.389474-21.557895 0-5.389474-5.389474-5.389474-16.168421 0-21.557895zM571.284211 336.842105c5.389474 0 10.778947 5.389474 16.168421 8.084211 5.389474 5.389474 8.084211 10.778947 8.08421 16.168421 2.694737 8.084211 10.778947 16.168421 18.863158 16.168421h2.694737c10.778947-2.694737 16.168421-10.778947 16.168421-21.557895-2.694737-13.473684-8.084211-26.947368-18.863158-35.031579-10.778947-10.778947-21.557895-16.168421-35.031579-18.863158-10.778947-2.694737-18.863158 5.389474-21.557895 16.168421-2.694737 8.084211 5.389474 18.863158 13.473685 18.863158z" p-id="16480"></path><path d="M582.063158 282.947368c16.168421 2.694737 32.336842 10.778947 45.810526 24.252632s21.557895 26.947368 24.252632 45.810526c2.694737 8.084211 10.778947 16.168421 18.863158 16.168421h2.694737c10.778947-2.694737 16.168421-10.778947 16.168421-21.557894-5.389474-24.252632-16.168421-45.810526-35.031579-64.673685-18.863158-18.863158-40.421053-29.642105-64.673685-35.031579-10.778947-2.694737-18.863158 5.389474-21.557894 16.168422-2.694737 8.084211 2.694737 16.168421 13.473684 18.863157z" p-id="16481"></path><path d="M592.842105 231.747368c26.947368 5.389474 51.2 18.863158 72.757895 37.726316 18.863158 18.863158 32.336842 45.810526 37.726316 72.757895 2.694737 8.084211 10.778947 16.168421 18.863158 16.168421h2.694737c10.778947-2.694737 16.168421-10.778947 16.168421-21.557895-8.084211-35.031579-24.252632-67.368421-48.505264-91.621052-24.252632-24.252632-56.589474-43.115789-91.621052-48.505264-10.778947-2.694737-18.863158 5.389474-21.557895 16.168422-2.694737 5.389474 2.694737 16.168421 13.473684 18.863157zM493.136842 487.747368h2.694737c8.084211 0 16.168421-5.389474 18.863158-16.168421 2.694737-10.778947-5.389474-18.863158-16.168421-21.557894-5.389474 0-10.778947-5.389474-16.168421-8.084211-5.389474-5.389474-8.084211-10.778947-8.084211-16.168421-2.694737-10.778947-10.778947-16.168421-21.557895-16.168421-10.778947 2.694737-16.168421 10.778947-16.168421 21.557895 2.694737 13.473684 8.084211 26.947368 18.863158 35.031579s24.252632 18.863158 37.726316 21.557894z" p-id="16482"></path><path d="M482.357895 541.642105h2.694737c8.084211 0 16.168421-5.389474 18.863157-16.168421 2.694737-10.778947-5.389474-18.863158-16.168421-21.557895-16.168421-2.694737-32.336842-10.778947-45.810526-24.252631s-21.557895-26.947368-24.252631-45.810526c-2.694737-10.778947-10.778947-16.168421-21.557895-16.168421-10.778947 2.694737-16.168421 10.778947-16.168421 21.557894 5.389474 24.252632 16.168421 45.810526 35.031579 64.673684s43.115789 35.031579 67.368421 37.726316z" p-id="16483"></path><path d="M476.968421 595.536842c8.084211 0 16.168421-5.389474 18.863158-16.168421 2.694737-10.778947-5.389474-18.863158-16.168421-21.557895-26.947368-5.389474-51.2-18.863158-72.757895-37.726315-18.863158-18.863158-32.336842-45.810526-37.726316-72.757895-2.694737-10.778947-10.778947-16.168421-21.557894-16.168421-10.778947 2.694737-16.168421 10.778947-16.168421 21.557894 5.389474 35.031579 24.252632 67.368421 48.505263 91.621053 24.252632 24.252632 56.589474 43.115789 91.621052 48.505263 2.694737 2.694737 2.694737 2.694737 5.389474 2.694737z" p-id="16484"></path><path d="M355.705263 703.326316c13.473684 2.694737 26.947368 5.389474 37.726316 5.389473l37.726316 37.726316c8.084211 8.084211 21.557895 13.473684 32.336842 13.473684 10.778947 0 24.252632-5.389474 32.336842-13.473684l37.726316-37.726316h43.115789c18.863158 0 35.031579 16.168421 35.031579 35.031579 0 18.863158-16.168421 35.031579-35.031579 35.031579h-150.905263c-10.778947 0-18.863158 8.084211-18.863158 18.863158s8.084211 18.863158 18.863158 18.863158h150.905263c40.421053 0 72.757895-32.336842 72.757895-72.757895 0-40.421053-32.336842-72.757895-72.757895-72.757894h-5.389473l312.589473-312.589474c18.863158-18.863158 18.863158-45.810526 0-64.673684l-247.915789-247.91579c-16.168421-16.168421-45.810526-16.168421-64.673684 0L185.936842 436.547368c-18.863158 18.863158-18.863158 45.810526 0 64.673685l161.684211 161.68421c-37.726316-8.084211-86.231579-10.778947-137.431579 24.252632L78.147368 808.421053c-8.084211 8.084211-8.084211 18.863158-2.694736 26.947368 2.694737 5.389474 8.084211 5.389474 13.473684 5.389474s8.084211-2.694737 13.473684-5.389474l132.042105-115.873684c43.115789-32.336842 86.231579-24.252632 121.263158-16.168421z m-142.821052-239.831579L600.926316 75.452632c2.694737-2.694737 5.389474-2.694737 5.389473-2.694737s2.694737 0 5.389474 2.694737l247.91579 247.915789c2.694737 0 2.694737 2.694737 2.694736 2.694737s0 2.694737-2.694736 5.389474L514.694737 676.378947l-43.11579 43.11579c-2.694737 2.694737-5.389474 2.694737-10.778947 0l-247.915789-247.91579c-2.694737 0-2.694737-5.389474 0-8.08421z" p-id="16485"></path><path d="M943.157895 649.431579c-8.084211-16.168421-24.252632-29.642105-43.11579-35.031579-18.863158-5.389474-37.726316-2.694737-56.589473 5.389474L700.631579 695.242105c-8.084211 5.389474-13.473684 16.168421-8.084211 24.252632 2.694737 5.389474 10.778947 10.778947 16.168421 10.778947 2.694737 0 5.389474 0 8.084211-2.694737l142.821053-78.147368c8.084211-5.389474 18.863158-5.389474 26.947368-2.694737 8.084211 2.694737 16.168421 8.084211 21.557895 16.168421 8.084211 16.168421 2.694737 37.726316-13.473684 48.505263l-331.452632 180.547369H272.168421 269.473684c-45.810526 5.389474-72.757895 43.115789-86.231579 67.368421-5.389474 8.084211-2.694737 21.557895 5.389474 26.947368 2.694737 2.694737 5.389474 2.694737 10.778947 2.694737s13.473684-2.694737 16.168421-8.08421c10.778947-16.168421 29.642105-43.115789 59.284211-48.505264h296.421053c2.694737 0 5.389474 0 8.08421-2.694736L916.210526 746.442105c32.336842-18.863158 45.810526-61.978947 26.947369-97.010526z" p-id="16486"></path></svg>