<?xml version="1.0" standalone="no"?><!DOCTYPE svg PUBLIC "-//W3C//DTD SVG 1.1//EN" "http://www.w3.org/Graphics/SVG/1.1/DTD/svg11.dtd"><svg t="1670548918541" class="icon" viewBox="0 0 1024 1024" version="1.1" xmlns="http://www.w3.org/2000/svg" p-id="1271" xmlns:xlink="http://www.w3.org/1999/xlink" width="200" height="200"><path d="M578.064516 49.548387a132.129032 132.129032 0 0 1 132.129032 132.129032v181.875613h33.098323A99.096774 99.096774 0 0 1 842.322581 458.933677l0.066064 3.716129V709.698065a32.98271 32.98271 0 0 0 65.948903 0V327.927742a66.064516 66.064516 0 0 0-27.648-53.76l-68.987871-49.284129a33.032258 33.032258 0 1 1 38.416517-53.743484l68.971354 49.284129a132.129032 132.129032 0 0 1 55.329033 107.503484v381.753806a99.047226 99.047226 0 0 1-198.094452 0V462.649806a33.032258 33.032258 0 0 0-33.032258-33.032258H710.193548V908.387097h33.032258a33.032258 33.032258 0 1 1 0 66.064516H82.580645a33.032258 33.032258 0 1 1 0-66.064516h33.032258V181.677419a132.129032 132.129032 0 0 1 132.129032-132.129032h330.322581z m0 66.064516H247.741935a66.064516 66.064516 0 0 0-66.064516 66.064516v726.709678h462.451613V396.58529 181.677419a66.064516 66.064516 0 0 0-66.064516-66.064516zM388.954839 481.544258a33.032258 33.032258 0 0 1 59.887484 27.879226l-33.676388 72.307613h50.952259a33.032258 33.032258 0 0 1 29.729032 47.434322l-54.222452 111.946323a33.032258 33.032258 0 0 1-59.458064-28.804129l31.248516-64.512H363.354839a33.032258 33.032258 0 0 1-29.943742-46.971871zM512 280.774194a33.032258 33.032258 0 1 1 0 66.064516H313.806452a33.032258 33.032258 0 1 1 0-66.064516h198.193548z" p-id="1272"></path></svg>