<?xml version="1.0" standalone="no"?><!DOCTYPE svg PUBLIC "-//W3C//DTD SVG 1.1//EN" "http://www.w3.org/Graphics/SVG/1.1/DTD/svg11.dtd"><svg t="1672194199736" class="icon" viewBox="0 0 1024 1024" version="1.1" xmlns="http://www.w3.org/2000/svg" p-id="1973" xmlns:xlink="http://www.w3.org/1999/xlink" width="200" height="200"><path d="M852.582 409.837L750.412 512c-44.28 44.275-108.998 54.49-163.487 27.245l180.512-180.506c27.251-27.251 27.251-74.925 0-102.176s-74.925-27.251-102.189 0L484.742 437.075c-27.25-54.49-17.03-119.2 27.252-163.481l102.17-102.164c57.913-57.907 146.463-57.9 204.358 0l34.048 34.055c57.9 57.9 57.9 146.445 0 204.345l0.012 0.007zM256.563 767.43c27.251 27.245 74.931 27.245 102.176 0l180.512-180.505c27.245 54.496 17.03 119.2-27.251 163.481L409.83 852.582c-57.9 57.895-146.45 57.895-204.345-0.006l-34.061-34.048c-57.894-57.9-57.894-146.451 0-204.352L273.594 512c44.275-44.269 108.985-54.496 163.481-27.251L256.57 665.26c-27.252 27.251-27.252 74.925 0 102.176l-0.007-0.007z m239.392-239.084c9.415 9.44 9.415 24.704-0.006 34.13l-75.072 75.08c-9.427 9.42-24.71 9.42-34.131 0-9.428-9.428-9.428-24.705 0-34.132l75.072-75.078c9.427-9.421 24.716-9.421 34.137 0z m141.863-141.338c9.42 9.434 9.414 24.71-0.007 34.131l-75.072 75.079c-9.427 9.414-24.704 9.42-34.125 0-9.427-9.428-9.427-24.704 0-34.132l75.066-75.078c9.427-9.414 24.717-9.414 34.138 0z" p-id="1974"></path></svg>